<svg width="200" height="200" viewBox="0 0 200 200" xmlns="http://www.w3.org/2000/svg">
  <defs>
    <radialGradient id="furGradient" cx="0.3" cy="0.3" r="0.8">
      <stop offset="0%" style="stop-color:#D4A574;stop-opacity:1" />
      <stop offset="50%" style="stop-color:#B8956A;stop-opacity:1" />
      <stop offset="100%" style="stop-color:#8B6F47;stop-opacity:1" />
    </radialGradient>
    <radialGradient id="earGradient" cx="0.3" cy="0.3" r="0.7">
      <stop offset="0%" style="stop-color:#E8C4A0;stop-opacity:1" />
      <stop offset="100%" style="stop-color:#A67C52;stop-opacity:1" />
    </radialGradient>
    <radialGradient id="innerEarGradient" cx="0.5" cy="0.5" r="0.6">
      <stop offset="0%" style="stop-color:#F5E6D3;stop-opacity:1" />
      <stop offset="100%" style="stop-color:#D4A574;stop-opacity:1" />
    </radialGradient>
  </defs>
  
  <!-- Background circle -->
  <circle cx="100" cy="100" r="100" fill="#F0E6D2"/>
  
  <!-- Head -->
  <ellipse cx="100" cy="110" rx="45" ry="50" fill="url(#furGradient)"/>
  
  <!-- Ears -->
  <ellipse cx="75" cy="75" rx="12" ry="25" fill="url(#earGradient)" transform="rotate(-25 75 75)"/>
  <ellipse cx="125" cy="75" rx="12" ry="25" fill="url(#earGradient)" transform="rotate(25 125 75)"/>
  
  <!-- Inner ears -->
  <ellipse cx="75" cy="75" rx="6" ry="15" fill="url(#innerEarGradient)" transform="rotate(-25 75 75)"/>
  <ellipse cx="125" cy="75" rx="6" ry="15" fill="url(#innerEarGradient)" transform="rotate(25 125 75)"/>
  
  <!-- Snout area -->
  <ellipse cx="100" cy="125" rx="25" ry="20" fill="#E8C4A0"/>
  
  <!-- Eyes -->
  <circle cx="88" cy="105" r="8" fill="#2C1810"/>
  <circle cx="112" cy="105" r="8" fill="#2C1810"/>
  
  <!-- Eye highlights -->
  <circle cx="90" cy="103" r="2" fill="#FFFFFF"/>
  <circle cx="114" cy="103" r="2" fill="#FFFFFF"/>
  
  <!-- Nose -->
  <ellipse cx="100" cy="130" rx="4" ry="3" fill="#2C1810"/>
  
  <!-- Mouth -->
  <path d="M 95 135 Q 100 140 105 135" stroke="#2C1810" stroke-width="2" fill="none"/>
  
  <!-- Whiskers -->
  <line x1="70" y1="125" x2="85" y2="125" stroke="#2C1810" stroke-width="1"/>
  <line x1="70" y1="130" x2="85" y2="128" stroke="#2C1810" stroke-width="1"/>
  <line x1="115" y1="125" x2="130" y2="125" stroke="#2C1810" stroke-width="1"/>
  <line x1="115" y1="128" x2="130" y2="130" stroke="#2C1810" stroke-width="1"/>
  
  <!-- Fur texture lines -->
  <path d="M 65 95 Q 70 100 65 105" stroke="#A67C52" stroke-width="1" fill="none" opacity="0.6"/>
  <path d="M 135 95 Q 130 100 135 105" stroke="#A67C52" stroke-width="1" fill="none" opacity="0.6"/>
  <path d="M 85 85 Q 90 90 85 95" stroke="#A67C52" stroke-width="1" fill="none" opacity="0.6"/>
  <path d="M 115 85 Q 110 90 115 95" stroke="#A67C52" stroke-width="1" fill="none" opacity="0.6"/>
</svg>